# xmcd CD database file
#
# Track frame offsets:
#	150
#	26775
#	43234
#	72134
#	94267
#	125413
#	156079
#
# Disc length: 2217 seconds
#
# Revision: 0
# Processed by: cddbd v1.5.2PL0 Copyright (c) Steve Scherf et al.
# Submitted via: CDex 1.51
#
DISCID=5c08a707
DTITLE=Robert Laupert - Entangled
DYEAR=2010
DGENRE=Jazz
TTITLE0=Shall We Dance (feat. Rachel Scharnberg)
TTITLE1=Run To You (feat. Samuel Harfst)
TTITLE2=Grace
TTITLE3=Miles (feat. Katharina Gernert)
TTITLE4=72 Hours
TTITLE5=Circles
TTITLE6=Grace (Reprise)
EXTD=YEAR: 2010
EXTT0=
EXTT1=
EXTT2=
EXTT3=
EXTT4=
EXTT5=
EXTT6=
PLAYORDER=
